<svg xmlns="http://www.w3.org/2000/svg" viewBox="0 0 660 170" role="img" aria-label="Pakabet">
  <defs>
    <linearGradient id="pkl-tile" x1="0" y1="0" x2="1" y2="1">
      <stop offset="0" stop-color="#1D3050"/>
      <stop offset="0.55" stop-color="#101A2B"/>
      <stop offset="1" stop-color="#06090F"/>
    </linearGradient>
    <linearGradient id="pkl-arc" x1="0.05" y1="0.95" x2="0.95" y2="0.05">
      <stop offset="0" stop-color="#C8102E"/>
      <stop offset="0.52" stop-color="#F2A31B"/>
      <stop offset="1" stop-color="#00A651"/>
    </linearGradient>
    <linearGradient id="pkl-word" gradientUnits="userSpaceOnUse" x1="430" y1="0" x2="640" y2="0">
      <stop offset="0" stop-color="#F2A31B"/>
      <stop offset="1" stop-color="#00A651"/>
    </linearGradient>
  </defs>

  <g transform="translate(8 12) scale(0.2812)">
    <rect width="512" height="512" rx="118" fill="url(#pkl-tile)"/>
    <rect x="5" y="5" width="502" height="502" rx="113" fill="none" stroke="#FFFFFF" stroke-opacity="0.12" stroke-width="10"/>
    <path d="M84 396 C 196 394 268 352 316 262 C 338 220 350 186 358 160"
          fill="none" stroke="url(#pkl-arc)" stroke-width="30" stroke-linecap="round"/>
    <g transform="translate(398 112) rotate(42)">
      <path d="M0 -62 C 13 -44 20 -19 21 8 L21 14 62 42 62 60 21 46 19 74 34 88 34 100 0 90 -34 100 -34 88 -19 74 -21 46 -62 60 -62 42 -21 14 -21 8 C -20 -19 -13 -44 0 -62 Z"
            fill="#FFFFFF"/>
      <path d="M0 -46 C 8 -32 12 -14 13 6 L13 44 -13 44 -13 6 C -12 -14 -8 -32 0 -46 Z" fill="#D9E3F2"/>
      <circle cx="0" cy="-16" r="8" fill="#101A2B" opacity="0.75"/>
    </g>
    <g>
      <rect x="84" y="428" width="110" height="16" rx="8" fill="#F4F7FC"/>
      <rect x="204" y="428" width="110" height="16" rx="8" fill="#C8102E"/>
      <rect x="324" y="428" width="104" height="16" rx="8" fill="#00A651"/>
    </g>
  </g>

  <text x="178" y="116" font-family="Inter, 'Segoe UI', Roboto, 'Helvetica Neue', Arial, sans-serif"
        font-size="96" font-weight="900" letter-spacing="-2" fill="#FFFFFF">PAKA<tspan fill="url(#pkl-word)">BET</tspan></text>
</svg>
