<svg xmlns="http://www.w3.org/2000/svg" viewBox="0 0 100 100">
  <defs>
    <radialGradient id="bg-berry" cx="50%" cy="50%" r="50%">
      <stop offset="0%" stop-color="#3d1217"/>
      <stop offset="100%" stop-color="#140608"/>
    </radialGradient>
    <radialGradient id="berry-red" cx="40%" cy="35%" r="60%">
      <stop offset="0%" stop-color="#ff4d6d"/>
      <stop offset="50%" stop-color="#e11d48"/>
      <stop offset="100%" stop-color="#881337"/>
    </radialGradient>
  </defs>
  <circle cx="50" cy="50" r="48" fill="url(#bg-berry)"/>
  <!-- Big Strawberry -->
  <path d="M30,35 C20,50 35,85 52,90 C68,85 82,50 72,35 C66,28 36,28 30,35 Z" fill="url(#berry-red)"/>
  <!-- Strawberry Seeds -->
  <ellipse cx="38" cy="45" rx="1.2" ry="2" fill="#fef08a" transform="rotate(-10 38 45)"/>
  <ellipse cx="48" cy="42" rx="1.2" ry="2" fill="#fef08a" transform="rotate(5 48 42)"/>
  <ellipse cx="58" cy="44" rx="1.2" ry="2" fill="#fef08a" transform="rotate(15 58 44)"/>
  <ellipse cx="42" cy="56" rx="1.2" ry="2" fill="#fef08a" transform="rotate(-5 42 56)"/>
  <ellipse cx="52" cy="55" rx="1.2" ry="2" fill="#fef08a" transform="rotate(8 52 55)"/>
  <ellipse cx="62" cy="58" rx="1.2" ry="2" fill="#fef08a" transform="rotate(20 62 58)"/>
  <ellipse cx="46" cy="68" rx="1.2" ry="2" fill="#fef08a" transform="rotate(0 46 68)"/>
  <ellipse cx="55" cy="69" rx="1.2" ry="2" fill="#fef08a" transform="rotate(10 55 69)"/>
  <ellipse cx="50" cy="80" rx="1" ry="1.8" fill="#fef08a" transform="rotate(5 50 80)"/>
  <!-- Green Calyx / Leaves -->
  <path d="M48,16 C46,24 40,30 32,32 C40,34 46,30 48,22 Z" fill="#22c55e"/>
  <path d="M52,16 C54,24 60,30 68,32 C60,34 54,30 52,22 Z" fill="#16a34a"/>
  <path d="M50,18 C50,28 50,34 50,38 C52,32 54,28 50,18 Z" fill="#4ade80"/>
  <path d="M40,28 C30,28 22,26 18,22 C24,28 32,30 40,32 Z" fill="#15803d"/>
  <path d="M60,28 C70,28 78,26 82,22 C76,28 68,30 60,32 Z" fill="#15803d"/>
  <!-- Stem -->
  <path d="M50,18 C49,12 46,8 42,6" stroke="#16a34a" stroke-width="2.5" stroke-linecap="round" fill="none"/>
</svg>
